<?xml version="1.0" standalone="no"?>
<!DOCTYPE svg PUBLIC "-//W3C//DTD SVG 20010904//EN"
 "http://www.w3.org/TR/2001/REC-SVG-20010904/DTD/svg10.dtd">
<svg version="1.0" xmlns="http://www.w3.org/2000/svg"
 width="128.000000pt" height="128.000000pt" viewBox="0 0 128.000000 128.000000"
 preserveAspectRatio="xMidYMid meet">
<metadata>
Created by potrace 1.13, written by Peter Selinger 2001-2015
</metadata>
<g transform="translate(0.000000,128.000000) scale(0.100000,-0.100000)"
fill="#000000" stroke="none">
<path d="M551 923 c-47 -23 -58 -52 -38 -105 9 -24 17 -54 19 -68 2 -13 13
-30 26 -36 l23 -11 -29 -12 c-25 -11 -35 -28 -71 -128 -23 -63 -40 -117 -38
-120 3 -2 29 -11 58 -19 93 -24 299 -14 333 17 8 7 0 35 -56 187 -14 38 -27
56 -45 63 -25 9 -25 9 -5 27 11 10 27 48 38 89 15 62 16 74 3 89 -36 44 -154
58 -218 27z m154 -3 c14 -5 23 -14 20 -20 -3 -5 0 -7 9 -4 9 3 19 -3 26 -16
41 -77 -146 -121 -220 -51 -24 22 -27 30 -19 50 6 15 14 21 25 17 9 -3 12 -2
9 4 -15 25 98 40 150 20z m-27 -219 c9 -5 29 -14 44 -19 17 -7 28 -21 33 -41
4 -17 13 -45 21 -61 9 -16 12 -35 8 -41 -4 -7 -3 -9 3 -6 11 7 28 -22 18 -31
-3 -3 -5 1 -5 8 0 7 -2 11 -5 8 -9 -8 6 -38 16 -32 5 3 9 -2 9 -10 0 -9 0 -19
0 -23 2 -22 -219 -36 -305 -19 -68 13 -66 11 -49 61 9 25 19 43 23 41 4 -3 7
3 8 12 1 9 10 42 21 72 15 45 24 57 50 65 17 6 34 14 38 18 10 10 51 9 72 -2z"/>
<path d="M195 905 c-57 -20 -95 -66 -95 -113 0 -33 6 -44 40 -72 40 -33 40
-34 20 -52 -11 -10 -22 -29 -25 -41 -20 -90 -25 -119 -25 -168 0 -55 1 -57 31
-63 61 -12 109 -6 193 25 48 17 88 34 90 37 2 4 -14 51 -37 105 -29 71 -47
101 -63 107 -12 5 -25 13 -29 19 -3 7 0 8 9 5 10 -4 21 8 35 40 24 51 25 59
12 84 -6 9 -12 29 -16 44 -9 46 -75 66 -140 43z m109 -18 c12 -9 18 -30 21
-72 1 -33 1 -50 -2 -37 l-4 23 -37 -30 c-20 -17 -45 -37 -54 -46 -17 -14 -59
-22 -44 -8 3 4 -8 12 -26 17 -66 22 -60 103 10 144 42 24 109 29 136 9z m34
-244 c-1 -5 13 -37 30 -73 51 -105 50 -107 -43 -141 -66 -25 -90 -30 -138 -26
-32 3 -61 8 -64 11 -3 3 -1 31 5 63 7 32 17 84 23 116 l10 57 90 0 c49 0 88
-3 87 -7z"/>
<path d="M1003 913 c-54 -11 -85 -105 -59 -178 11 -32 18 -39 35 -37 19 2 20
0 9 -12 -8 -7 -23 -16 -33 -20 -14 -4 -32 -36 -58 -98 -20 -51 -37 -98 -37
-104 0 -16 165 -74 210 -74 21 0 52 3 70 7 l33 6 -6 98 c-6 96 -26 169 -46
169 -20 0 -12 15 30 59 36 37 40 47 35 74 -14 69 -107 125 -183 110z m108 -32
c39 -24 72 -76 64 -102 -10 -29 -34 -49 -61 -49 -14 0 -22 -4 -19 -10 3 -5 -3
-10 -15 -10 -12 0 -18 5 -15 10 3 6 -6 15 -22 21 -15 5 -41 22 -57 37 -27 26
-28 26 -22 5 5 -14 3 -23 -4 -23 -16 0 -1 101 18 123 21 23 92 23 133 -2z m15
-248 c1 -10 7 -47 13 -83 27 -144 27 -136 -9 -144 -56 -11 -93 -6 -175 23 -93
33 -93 33 -44 138 18 38 31 71 31 76 -1 4 40 7 91 7 81 0 93 -2 93 -17z"/>
</g>
</svg>
